<svg width="111" height="37" viewBox="0 0 111 37" fill="none" xmlns="http://www.w3.org/2000/svg">
<path fill-rule="evenodd" clip-rule="evenodd" d="M69.9915 12.3096L68.2029 8.92965L65.0281 10.6196L63.2395 7.22965L60.0647 8.92965L58.285 5.52965L55.1102 7.22965L53.3216 3.83965L50.1468 5.53965L48.3671 2.13965L45.1834 3.83965L38.4492 28.3596L46.6321 31.1596C46.9404 30.0545 47.592 29.109 48.4692 28.4942C49.3465 27.8793 50.3915 27.6356 51.4154 27.8071C52.4393 27.9786 53.3745 28.554 54.0522 29.4293C54.7298 30.3045 55.1051 31.422 55.1102 32.5796V32.6796C55.1281 33.1196 55.0834 33.5596 54.9671 33.9996L63.2842 36.8496L69.9915 12.3096Z" fill="#828792"/>
<path fill-rule="evenodd" clip-rule="evenodd" d="M45.4678 26.3395C45.2609 26.3012 45.0732 26.1813 44.9386 26.0015C44.8041 25.8217 44.7316 25.5939 44.7345 25.3595V13.3595C44.7333 13.2278 44.7556 13.0972 44.8001 12.9752C44.8446 12.8533 44.9104 12.7425 44.9937 12.6494C45.077 12.5563 45.1761 12.4827 45.2851 12.4329C45.3942 12.3831 45.511 12.3582 45.6288 12.3595H53.3824C53.8393 12.3582 54.2919 12.4575 54.7144 12.6518C55.1369 12.846 55.5211 13.1315 55.845 13.4918C56.1688 13.8521 56.4261 14.2802 56.602 14.7516C56.7779 15.2231 56.8691 15.7286 56.8702 16.2395V25.3595C56.87 25.5068 56.8407 25.6522 56.7843 25.7853C56.728 25.9184 56.6461 26.036 56.5444 26.1296C56.4428 26.2233 56.3239 26.2906 56.1962 26.3269C56.0686 26.3632 55.9353 26.3675 55.806 26.3395C55.6008 26.2991 55.4151 26.1783 55.2824 25.9987C55.1496 25.8191 55.0785 25.5925 55.0816 25.3595V16.2495C55.0816 15.7456 54.9026 15.2623 54.5839 14.906C54.2653 14.5497 53.8331 14.3495 53.3824 14.3495H51.6922V25.3495C51.6929 25.4835 51.6695 25.6163 51.6234 25.7399C51.5773 25.8636 51.5095 25.9757 51.4239 26.0695C51.3221 26.1824 51.1972 26.266 51.0602 26.313C50.9231 26.36 50.7778 26.3691 50.6369 26.3395C50.43 26.3012 50.2423 26.1813 50.1077 26.0015C49.9732 25.8217 49.9008 25.5939 49.9036 25.3595V14.3495H46.5231V25.3495C46.5239 25.4966 46.4957 25.6421 46.4405 25.7756C46.3853 25.9091 46.3044 26.0274 46.2036 26.1219C46.1028 26.2165 45.9846 26.285 45.8574 26.3226C45.7302 26.3602 45.5972 26.366 45.4678 26.3395ZM58.3637 31.5695C58.1553 31.531 57.9663 31.4096 57.8316 31.2277C57.6969 31.0458 57.6254 30.8156 57.6304 30.5795C57.6314 30.3171 57.7245 30.0657 57.8897 29.8795C58.0549 29.6911 58.2799 29.5832 58.5158 29.5795C59.2759 29.5795 59.9288 29.0395 60.1434 28.2295L61.0645 24.7995L58.0507 13.5295C58.0148 13.4034 58.0015 13.2707 58.0118 13.1389C58.0221 13.0071 58.0556 12.8789 58.1105 12.7617C58.1654 12.6445 58.2406 12.5406 58.3316 12.4561C58.4227 12.3717 58.5278 12.3082 58.641 12.2695C58.8662 12.1997 59.1069 12.2292 59.3132 12.352C59.5196 12.4748 59.6759 12.6815 59.7499 12.9295L61.9857 21.3295L64.2572 12.9295C64.3645 12.4695 64.8206 12.1595 65.2857 12.2595L65.3483 12.2695C65.8312 12.4395 66.0995 13.0095 65.9564 13.5395L62.8532 25.0995L61.8694 28.7995C61.6487 29.5958 61.2109 30.295 60.6174 30.7995C60.0137 31.3058 59.2794 31.5795 58.5247 31.5795C58.4709 31.5818 58.417 31.5785 58.3637 31.5695Z" fill="#FEFEFE"/>
<path fill-rule="evenodd" clip-rule="evenodd" d="M3.704 24.1494H5.45685C5.9241 24.1494 6.37222 23.9418 6.70262 23.5724C7.03302 23.2029 7.21864 22.7019 7.21864 22.1794V16.4094C7.21981 16.1507 7.17541 15.8942 7.08796 15.6547C7.0005 15.4152 6.87172 15.1973 6.70895 15.0134C6.54618 14.8296 6.35262 14.6834 6.13932 14.5832C5.92602 14.4829 5.69715 14.4307 5.46579 14.4294H3.704V24.1294V24.1494ZM2.604 26.2094C2.38927 26.1688 2.1946 26.0437 2.05518 25.8566C1.91576 25.6695 1.8408 25.4329 1.84384 25.1894V7.26938C1.84226 7.13228 1.86518 6.9962 1.91125 6.86913C1.95732 6.74206 2.02561 6.62655 2.11213 6.52938C2.21681 6.40785 2.34658 6.31693 2.49005 6.26462C2.63351 6.2123 2.78627 6.20021 2.9349 6.22938C3.38205 6.32938 3.704 6.74938 3.704 7.25938V12.3594H5.45685C5.93207 12.3581 6.40285 12.4616 6.84223 12.664C7.28162 12.8665 7.68097 13.1638 8.01741 13.5391C8.35386 13.9144 8.62079 14.3602 8.80292 14.851C8.98505 15.3418 9.0788 15.868 9.0788 16.3994V22.1694C9.07644 23.24 8.69502 24.2661 8.01797 25.0232C7.34091 25.7803 6.42329 26.2067 5.46579 26.2094H2.77392C2.71415 26.2133 2.65418 26.21 2.59506 26.1994L2.604 26.2094Z" fill="#828792"/>
<path fill-rule="evenodd" clip-rule="evenodd" d="M15.3831 14.3494C15.2827 14.3298 15.1809 14.3198 15.079 14.3194C14.847 14.3168 14.6168 14.3659 14.402 14.4639C14.1871 14.562 13.992 14.707 13.8279 14.8905C13.6638 15.0739 13.5341 15.2922 13.4464 15.5324C13.3588 15.7726 13.3148 16.03 13.3172 16.2894V22.2994C13.316 22.5585 13.3608 22.8153 13.4489 23.0549C13.537 23.2945 13.6668 23.5122 13.8306 23.6954C13.9944 23.8786 14.1891 24.0236 14.4034 24.1222C14.6177 24.2207 14.8473 24.2708 15.079 24.2694C15.5463 24.2694 15.9944 24.0619 16.3248 23.6924C16.6552 23.323 16.8408 22.8219 16.8408 22.2994V16.2994C16.8408 15.3294 16.2237 14.5194 15.3831 14.3494ZM14.444 26.2994C13.6055 26.1345 12.8461 25.6437 12.2996 24.9137C11.7531 24.1838 11.4547 23.2614 11.4571 22.3094V16.2994C11.4555 15.7675 11.5488 15.2406 11.7315 14.7496C11.9143 14.2585 12.1827 13.8131 12.5213 13.4394C12.8571 13.064 13.2559 12.7665 13.6948 12.564C14.1338 12.3615 14.6042 12.258 15.079 12.2594C16.0372 12.2594 16.9562 12.6851 17.6338 13.4427C18.3114 14.2004 18.692 15.228 18.692 16.2994V22.3094C18.692 23.3894 18.3164 24.4094 17.6278 25.1794C17.2933 25.5541 16.896 25.8512 16.4586 26.0537C16.0212 26.2562 15.5524 26.3601 15.079 26.3594C14.8662 26.3604 14.6537 26.3403 14.444 26.2994ZM24.9969 14.3594C24.8965 14.3398 24.7948 14.3297 24.6928 14.3294C24.4608 14.3268 24.2306 14.3759 24.0158 14.4739C23.801 14.572 23.6058 14.717 23.4417 14.9005C23.2776 15.0839 23.148 15.3022 23.0603 15.5424C22.9726 15.7826 22.9286 16.04 22.931 16.2994V22.3094C22.9298 22.5685 22.9746 22.8253 23.0627 23.0649C23.1508 23.3045 23.2806 23.5222 23.4444 23.7054C23.6082 23.8886 23.8029 24.0336 24.0172 24.1322C24.2315 24.2307 24.4611 24.2808 24.6928 24.2794C24.9245 24.2808 25.1541 24.2307 25.3684 24.1322C25.5827 24.0336 25.7774 23.8886 25.9412 23.7054C26.1051 23.5222 26.2348 23.3045 26.3229 23.0649C26.411 22.8253 26.4558 22.5685 26.4546 22.3094V16.2994C26.4546 15.3394 25.8375 14.5294 24.9969 14.3594ZM24.0579 26.2994C23.221 26.1324 22.4636 25.6407 21.9189 24.9109C21.3742 24.1812 21.0771 23.26 21.0798 22.3094V16.2994C21.0812 15.7101 21.1976 15.1282 21.4209 14.5943C21.6442 14.0605 21.9691 13.5876 22.3727 13.2086C22.7763 12.8296 23.2491 12.5537 23.7579 12.4001C24.2668 12.2466 24.7995 12.219 25.3188 12.3194C26.1575 12.482 26.9178 12.9704 27.4659 13.6985C28.014 14.4266 28.3146 15.3477 28.3148 16.2994V22.3094C28.3159 22.8436 28.2215 23.3727 28.0372 23.8655C27.8529 24.3584 27.5824 24.8051 27.2416 25.1794C26.9072 25.5541 26.5098 25.8512 26.0725 26.0537C25.6351 26.2562 25.1662 26.3601 24.6928 26.3594C24.4782 26.3594 24.2636 26.3394 24.0579 26.2994ZM31.4538 26.3394C31.2391 26.2989 31.0444 26.1737 30.905 25.9867C30.7656 25.7996 30.6906 25.5629 30.6936 25.3194V7.26943C30.6936 6.98943 30.7831 6.71943 30.9619 6.52943C31.0674 6.41298 31.1965 6.32672 31.3382 6.27797C31.4798 6.22922 31.63 6.21943 31.7757 6.24943C32.2229 6.32943 32.5538 6.75943 32.5538 7.26943V17.9494L36.8286 12.5894C37.0432 12.3294 37.3652 12.2094 37.6871 12.2694C37.8495 12.2998 38.0015 12.3782 38.1276 12.4966C38.2536 12.615 38.349 12.769 38.4037 12.9425C38.4585 13.116 38.4707 13.3028 38.439 13.4834C38.4074 13.664 38.333 13.8318 38.2237 13.9694L34.9953 17.9994L38.331 24.8294C38.3911 24.9446 38.43 25.0721 38.4453 25.2043C38.4607 25.3366 38.4522 25.4709 38.4205 25.5994C38.3859 25.7319 38.3277 25.8551 38.2493 25.9617C38.1709 26.0683 38.0739 26.156 37.9644 26.2194C37.775 26.3411 37.5531 26.3837 37.3383 26.3394C37.2047 26.3142 37.0778 26.2563 36.9665 26.1698C36.8552 26.0834 36.7623 25.9706 36.6944 25.8394L33.6896 19.6594L32.5449 21.0694V25.3194C32.5449 25.5953 32.4469 25.8598 32.2724 26.0548C32.098 26.2499 31.8614 26.3594 31.6148 26.3594C31.5522 26.3594 31.4985 26.3594 31.4359 26.3394H31.4538ZM72.4221 26.3294C71.9192 26.2352 71.4414 26.0167 71.0237 25.6897C70.6059 25.3627 70.2587 24.9356 70.0075 24.4394C69.8846 24.1963 69.8524 23.9089 69.918 23.6394C69.9896 23.3794 70.1416 23.1594 70.3473 23.0194C70.5383 22.9028 70.7595 22.8639 70.9733 22.9094C71.2416 22.9594 71.4831 23.1394 71.6172 23.4094C71.8587 23.8694 72.2432 24.1694 72.7172 24.2594C72.9616 24.3069 73.2124 24.292 73.4509 24.2158C73.6894 24.1396 73.9094 24.0041 74.0944 23.8194C74.4522 23.4494 74.631 22.9194 74.5863 22.3994C74.5764 22.1329 74.5105 21.8727 74.394 21.6399C74.2775 21.4071 74.1136 21.2083 73.9156 21.0594L71.4115 19.0694C71.0035 18.7491 70.6638 18.3321 70.4165 17.8481C70.1691 17.3641 70.0203 16.8251 69.9806 16.2694C69.9483 15.7088 70.0305 15.1473 70.2211 14.6275C70.4117 14.1077 70.7056 13.6433 71.0806 13.2694C71.4465 12.8891 71.8835 12.6047 72.36 12.437C72.8365 12.2692 73.3404 12.2222 73.8351 12.2994C74.8904 12.4994 75.7489 13.1794 76.2408 14.1394C76.3593 14.3793 76.3901 14.6612 76.3268 14.926C76.2634 15.1908 76.1108 15.4178 75.9009 15.5594C75.7116 15.6812 75.4897 15.7237 75.2749 15.6794C75.1413 15.6542 75.0143 15.5963 74.903 15.5098C74.7917 15.4234 74.6989 15.3106 74.631 15.1794C74.5188 14.9673 74.366 14.7855 74.1836 14.6472C74.0011 14.5089 73.7935 14.4174 73.5757 14.3794C73.3529 14.3343 73.1237 14.3479 72.9064 14.4191C72.6891 14.4902 72.4896 14.617 72.3237 14.7894C72.1618 14.9603 72.0354 15.1689 71.9535 15.4005C71.8716 15.632 71.8362 15.8809 71.8497 16.1294C71.8676 16.6194 72.118 17.0994 72.4936 17.3794L74.9977 19.3294C75.4228 19.6622 75.7743 20.0992 76.0253 20.6069C76.2764 21.1147 76.4205 21.6799 76.4465 22.2594C76.4879 22.8362 76.4084 23.4158 76.2144 23.9523C76.0203 24.4887 75.717 24.9671 75.3286 25.3494C74.9508 25.7419 74.4995 26.0354 74.0076 26.2083C73.5156 26.3813 72.9954 26.4295 72.4847 26.3494L72.4132 26.3294H72.4221ZM79.6034 26.3594C79.3886 26.3172 79.1939 26.1919 79.0533 26.0055C78.9127 25.8191 78.8352 25.5833 78.8343 25.3394V7.28943C78.8331 7.15248 78.8563 7.01664 78.9026 6.88986C78.949 6.76308 79.0174 6.6479 79.104 6.55106C79.1906 6.45422 79.2936 6.37766 79.407 6.32587C79.5204 6.27408 79.6419 6.24809 79.7644 6.24943L79.9432 6.25943C80.3904 6.35943 80.6945 6.76943 80.6945 7.28943V12.3894H82.4562C82.931 12.3881 83.4014 12.4917 83.8403 12.6943C84.2792 12.8968 84.6779 13.1944 85.0136 13.5698C85.3494 13.9452 85.6155 14.3911 85.7966 14.8818C85.9778 15.3726 86.0704 15.8985 86.0692 16.4294V25.3294C86.07 25.4804 86.0411 25.6298 85.9845 25.7669C85.9279 25.904 85.8451 26.0255 85.7418 26.1228C85.6386 26.2201 85.5174 26.2909 85.387 26.33C85.2566 26.3692 85.1201 26.3758 84.9871 26.3494C84.54 26.2594 84.218 25.8294 84.218 25.3194V16.4194C84.218 16.1612 84.1724 15.9055 84.0837 15.667C83.9951 15.4286 83.8652 15.2121 83.7015 15.0299C83.5378 14.8478 83.3435 14.7037 83.1298 14.6057C82.9161 14.5078 82.6872 14.4581 82.4562 14.4594H80.6945V25.3294C80.6955 25.4814 80.6664 25.6318 80.6093 25.7698C80.5522 25.9077 80.4685 26.0298 80.3642 26.1273C80.2599 26.2248 80.1376 26.2953 80.006 26.3337C79.8745 26.3721 79.737 26.3775 79.6034 26.3494V26.3594ZM92.3741 14.3694C92.1207 14.318 91.8602 14.3296 91.6113 14.4035C91.3624 14.4774 91.131 14.6118 90.9338 14.797C90.7366 14.9822 90.5783 15.2138 90.4701 15.4752C90.362 15.7366 90.3068 16.0214 90.3083 16.3094V22.3194C90.3071 22.5777 90.3516 22.8336 90.4391 23.0726C90.5267 23.3115 90.6556 23.5288 90.8185 23.7118C90.9814 23.8949 91.175 24.0402 91.3883 24.1393C91.6015 24.2384 91.8302 24.2894 92.0611 24.2894C92.5262 24.2894 92.9733 24.0894 93.3042 23.7194C93.4698 23.5366 93.6011 23.3185 93.6902 23.0781C93.7792 22.8376 93.8244 22.5797 93.8229 22.3194V16.2994C93.8229 15.3394 93.2148 14.5194 92.3652 14.3594L92.3741 14.3694ZM91.4262 26.2894C90.59 26.1245 89.8328 25.6349 89.288 24.9067C88.7432 24.1786 88.4457 23.2588 88.4481 22.3094V16.2994C88.4482 15.7092 88.5637 15.1262 88.7864 14.5911C89.0091 14.0561 89.3338 13.5819 89.7376 13.2018C90.1414 12.8217 90.6146 12.5449 91.1241 12.3908C91.6336 12.2366 92.167 12.2089 92.6871 12.3094C93.5273 12.4723 94.2888 12.9621 94.8371 13.6923C95.3854 14.4225 95.685 15.346 95.6831 16.2994V22.3094C95.6835 22.842 95.5888 23.3693 95.4045 23.8605C95.2202 24.3516 94.9501 24.7966 94.6099 25.1694C94.1997 25.63 93.6958 25.9725 93.1413 26.1676C92.5868 26.3626 91.9983 26.4045 91.4262 26.2894Z" fill="#828792"/>
<path fill-rule="evenodd" clip-rule="evenodd" d="M109.967 13.5393C109.997 13.4123 110.005 13.2797 109.99 13.1493C109.975 13.0189 109.936 12.8932 109.877 12.7793C109.81 12.6579 109.721 12.5529 109.617 12.4705C109.512 12.388 109.394 12.3298 109.269 12.2993C109.039 12.2506 108.8 12.3021 108.602 12.4433C108.405 12.5845 108.263 12.8049 108.205 13.0593C108.205 13.1093 107.203 17.6193 106.416 21.0493L106.399 21.1193L106.381 21.0493L104.592 13.0693C104.558 12.8745 104.471 12.6962 104.343 12.5585C104.215 12.4208 104.052 12.3303 103.877 12.2993C103.824 12.2876 103.77 12.2809 103.716 12.2793C103.304 12.2793 102.947 12.5993 102.83 13.0593C102.821 13.1093 101.82 17.6193 101.042 21.0493L101.024 21.1193L101.006 21.0493C100.246 17.6193 99.2173 13.1093 99.2173 13.0593C99.1751 12.8679 99.0843 12.6943 98.9557 12.5594C98.8271 12.4245 98.6664 12.3342 98.4929 12.2993C98.344 12.2699 98.1909 12.2823 98.0474 12.3354C97.9038 12.3885 97.7744 12.4807 97.6706 12.6037C97.5668 12.7267 97.492 12.8766 97.4529 13.0399C97.4138 13.2032 97.4116 13.3748 97.4465 13.5393L100.138 25.5693C100.189 25.7898 100.303 25.9854 100.463 26.1263C100.623 26.2672 100.82 26.3456 101.024 26.3493C101.462 26.3493 101.811 26.0293 101.9 25.5693L103.689 17.5793L103.716 17.5093L103.734 17.5793C104.521 21.0493 105.522 25.5793 105.522 25.5793C105.576 25.7955 105.689 25.9869 105.847 26.1254C106.005 26.264 106.198 26.3424 106.399 26.3493C106.605 26.3565 106.806 26.2822 106.968 26.1396C107.13 25.9969 107.242 25.795 107.284 25.5693L109.967 13.5393Z" fill="#828792"/>
</svg>
