<svg width="48" height="48" viewBox="0 0 48 48" fill="none" xmlns="http://www.w3.org/2000/svg">
<path d="M1.98367e-05 0C3.15174 3.7584e-08 6.2726 0.620779 9.18442 1.82689C12.0962 3.03301 14.742 4.80083 16.9706 7.02944C19.1992 9.25805 20.967 11.9038 22.1731 14.8156C23.3792 17.7274 24 20.8483 24 24C24 27.1517 23.3792 30.2726 22.1731 33.1844C20.967 36.0962 19.1992 38.742 16.9706 40.9706C14.742 43.1992 12.0962 44.967 9.1844 46.1731C6.27258 47.3792 3.15172 48 0 48L1.98367e-05 0Z" fill="#E6D3A3"/>
<path d="M48 0C44.8483 3.7584e-08 41.7274 0.620779 38.8156 1.82689C35.9038 3.03301 33.258 4.80083 31.0294 7.02944C28.8008 9.25805 27.033 11.9038 25.8269 14.8156C24.6208 17.7274 24 20.8483 24 24C24 27.1517 24.6208 30.2726 25.8269 33.1844C27.033 36.0962 28.8008 38.742 31.0294 40.9706C33.258 43.1992 35.9038 44.967 38.8156 46.1731C41.7274 47.3792 44.8483 48 48 48L48 0Z" fill="#E6D3A3"/>
</svg>
