<svg width="53" height="97" viewBox="0 0 53 97" fill="none" xmlns="http://www.w3.org/2000/svg">
<g style="mix-blend-mode:multiply" opacity="0.1">
<circle cx="48.8281" cy="3.00195" r="3" fill="#0A033C"/>
<circle cx="33.75" cy="3" r="3" fill="#0A033C"/>
<circle cx="18.2773" cy="3.00195" r="3" fill="#0A033C"/>
<circle cx="3.00391" cy="3.00391" r="3" fill="#0A033C"/>
<circle cx="48.8281" cy="18.0762" r="3" fill="#0A033C"/>
<circle cx="48.8281" cy="33.1514" r="3" fill="#0A033C"/>
<circle cx="48.8281" cy="48.2266" r="3" fill="#0A033C"/>
<circle cx="48.832" cy="63.3008" r="3" fill="#0A033C"/>
<circle cx="49.2305" cy="78.375" r="3" fill="#0A033C"/>
<circle cx="33.3516" cy="93.4482" r="3" fill="#0A033C"/>
<circle cx="49.2305" cy="93.4502" r="3" fill="#0A033C"/>
<circle cx="33.75" cy="18.0742" r="3" fill="#0A033C"/>
<circle cx="33.75" cy="33.1494" r="3" fill="#0A033C"/>
<circle cx="33.7539" cy="48.2246" r="3" fill="#0A033C"/>
<circle cx="33.75" cy="63.2988" r="3" fill="#0A033C"/>
<circle cx="33.3516" cy="78.373" r="3" fill="#0A033C"/>
<circle cx="18.0781" cy="93.4502" r="3" fill="#0A033C"/>
<circle cx="18.2773" cy="18.0762" r="3" fill="#0A033C"/>
<circle cx="18.2773" cy="33.1514" r="3" fill="#0A033C"/>
<circle cx="18.2773" cy="48.2266" r="3" fill="#0A033C"/>
<circle cx="18.2773" cy="63.3008" r="3" fill="#0A033C"/>
<circle cx="18.0781" cy="78.375" r="3" fill="#0A033C"/>
<circle cx="3" cy="93.4521" r="3" fill="#0A033C"/>
<circle cx="3" cy="18.0781" r="3" fill="#0A033C"/>
<circle cx="3" cy="33.1533" r="3" fill="#0A033C"/>
<circle cx="3" cy="48.2285" r="3" fill="#0A033C"/>
<circle cx="3" cy="63.3027" r="3" fill="#0A033C"/>
<circle cx="3" cy="78.377" r="3" fill="#0A033C"/>
</g>
</svg>
