<svg width="196" height="72" viewBox="0 0 196 72" fill="none" xmlns="http://www.w3.org/2000/svg">
<rect width="195.565" height="71.9999" fill="#636C78"/>
<mask id="mask0_1809_4345" style="mask-type:alpha" maskUnits="userSpaceOnUse" x="0" y="0" width="196" height="72">
<rect x="195.566" width="71.9998" height="195.565" transform="rotate(90 195.566 0)" fill="#C4C4C4"/>
</mask>
<g mask="url(#mask0_1809_4345)">
<path d="M-1.5586 103.797L214.661 103.797L214.661 -5.33202L-1.55859 -5.33203L-1.5586 103.797Z" fill="#121713"/>
<path d="M-1.5586 49.2345L-1.55859 -5.33203L40.1047 -5.33203L-1.5586 49.2345Z" fill="#432E2D"/>
<path d="M141.505 49.2305L141.505 103.801L99.8398 103.801L141.505 49.2305Z" fill="#F14A1E"/>
<path d="M160.875 103.797L160.875 -5.33202L-1.55859 -5.33203L160.875 103.797Z" fill="#4C4E8E"/>
<path d="M214.659 103.797L214.659 -5.33202L55.3945 -5.33203L214.659 103.797Z" fill="#C39466"/>
<path d="M214.662 -5.33203L214.662 103.797L131.34 103.797L214.662 -5.33203Z" fill="#61422F"/>
<path d="M214.658 103.797L214.658 -5.33203L159.953 66.3149L214.658 103.797Z" fill="#FF4033"/>
</g>
</svg>
