<svg width="132" height="65" viewBox="0 0 132 65" fill="none" xmlns="http://www.w3.org/2000/svg">
<rect width="132" height="64.8446" transform="translate(0 0.151367)" fill="#636C78"/>
<mask id="mask0_1809_4343" style="mask-type:alpha" maskUnits="userSpaceOnUse" x="0" y="0" width="132" height="65">
<rect y="64.9961" width="64.8446" height="132" transform="rotate(-90 0 64.9961)" fill="#C4C4C4"/>
</mask>
<g mask="url(#mask0_1809_4343)">
<path d="M133.055 -28.4851L-12.8861 -28.4851L-12.8861 69.7988L133.055 69.7988L133.055 -28.4851Z" fill="#FF5545"/>
<path d="M133.055 20.6551L133.055 69.7988L104.933 69.7988L133.055 20.6551Z" fill="#E6D3A3"/>
<path d="M36.4905 20.6592L36.4905 -28.4881L64.6133 -28.4881L36.4905 20.6592Z" fill="#F14A1E"/>
<path d="M23.4177 -28.4851L23.4177 69.7988L133.055 69.7988L23.4177 -28.4851Z" fill="#4C4E8E"/>
<path d="M-12.8849 -28.4851L-12.8849 69.7988L94.6133 69.7988L-12.8849 -28.4851Z" fill="#121713"/>
<path d="M-12.8842 69.7988L-12.8842 -28.4851L43.3555 -28.4851L-12.8842 69.7988Z" fill="#61422F"/>
<path d="M-12.8851 -28.4851L-12.8851 69.7988L24.0391 5.2721L-12.8851 -28.4851Z" fill="#FF4033"/>
</g>
</svg>
