<svg width="126" height="186" viewBox="0 0 126 186" fill="none" xmlns="http://www.w3.org/2000/svg">
<rect width="125.839" height="185.058" transform="translate(0 0.150391)" fill="#636C78"/>
<mask id="mask0_1809_4344" style="mask-type:alpha" maskUnits="userSpaceOnUse" x="0" y="0" width="126" height="186">
<rect y="0.150391" width="125.839" height="185.058" fill="#C4C4C4"/>
</mask>
<g mask="url(#mask0_1809_4344)">
<path d="M0.000495911 185.208L125.84 185.208L125.84 0.15036L0.000506141 0.150343L0.000495911 185.208Z" fill="#432E2D"/>
<path d="M0.00177383 129.691L63.3945 129.691L63.3945 65.4082L0.00177739 65.4082L0.00177383 129.691Z" fill="#FF7A2D"/>
<path d="M63.1561 129.762L125.84 129.762L125.84 65.0726L63.1561 65.0726L63.1561 129.762Z" fill="#FF7A2D"/>
<path d="M0.00177558 129.692L63.3945 185.209L0.00177251 185.209L0.00177558 129.692Z" fill="#CFC6B4"/>
<path d="M63.1111 185.209L125.84 129.761L63.1111 129.761L63.1111 185.209Z" fill="#FF5545"/>
<path d="M63.1561 64.8398L125.84 64.8398L125.84 0.150764L63.1561 0.150756L63.1561 64.8398Z" fill="#FF7A2D"/>
<path d="M63.1758 129.691L63.1758 0.151047C46.42 0.151045 30.3505 6.9628 18.5024 19.0878C6.65427 31.2128 -0.00193965 47.6578 -0.00194059 64.8052C-0.00194154 81.9525 6.65426 98.3976 18.5024 110.523C30.3505 122.648 46.42 129.459 63.1758 129.459L63.1758 129.691Z" fill="#FF5545"/>
<path d="M62.8976 129.691L125.84 129.691L125.84 65.4082L0.000523872 65.4082C0.0244507 82.4657 6.66165 98.8161 18.4546 110.869C30.2475 122.922 46.2319 129.691 62.8976 129.691V129.691Z" fill="#CFC6B4"/>
<path d="M125.84 129.762L125.84 0.151378C109.215 0.151375 93.2712 6.96681 81.5158 19.0984C69.7603 31.2299 63.1561 47.6838 63.1561 64.8404C63.1561 81.9971 69.7603 98.451 81.5158 110.583C93.2712 122.714 109.215 129.53 125.84 129.53L125.84 129.762Z" fill="#432E2D"/>
<path d="M125.84 97.3937L125.84 32.6581C121.46 32.2044 117.037 32.7031 112.855 34.1221C108.673 35.541 104.826 37.8486 101.562 40.8962C98.2976 43.9437 95.6885 47.6635 93.9028 51.8156C92.1171 55.9677 91.1945 60.46 91.1945 65.0027C91.1945 69.5454 92.1171 74.0376 93.9028 78.1898C95.6885 82.3419 98.2976 86.0617 101.562 89.1092C104.826 92.1568 108.673 94.4644 112.855 95.8833C117.037 97.3022 121.46 97.8009 125.84 97.3472L125.84 97.3937Z" fill="#CFC6B4"/>
<path d="M63.1094 97.3945L63.1094 32.659C55.3389 33.4639 48.1353 37.219 42.8961 43.1956C37.657 49.1722 34.756 56.9442 34.756 65.0035C34.756 73.0629 37.657 80.8349 42.8961 86.8115C48.1353 92.7881 55.3389 96.5432 63.1094 97.3481L63.1094 97.3945Z" fill="#CFC6B4"/>
<path d="M125.84 129.762L125.84 65.1655L63.1111 65.1655C63.1469 82.3103 69.7716 98.7403 81.5316 110.85C93.2917 122.961 109.227 129.762 125.84 129.762V129.762Z" fill="#FF7A2D"/>
</g>
</svg>
