<svg width="91" height="31" viewBox="0 0 91 31" fill="none" xmlns="http://www.w3.org/2000/svg">
<path opacity="0.1" fill-rule="evenodd" clip-rule="evenodd" d="M1.65625 15.252H15.6471V1.1123H1.65625V15.252Z" fill="#828792"/>
<path opacity="0.3" fill-rule="evenodd" clip-rule="evenodd" d="M15.75 15.252H29.7408V1.1123H15.75V15.252Z" fill="#828792"/>
<path fill-rule="evenodd" clip-rule="evenodd" d="M30.7333 0.120117H0.667969V30.4832H30.7333V0.120117ZM16.7425 2.10463C18.3797 2.10463 27.062 2.10463 28.6992 2.10463C28.6992 3.74185 28.6992 12.5729 28.6992 14.2102C27.062 14.2102 18.3797 14.2102 16.7425 14.2102C16.7425 12.6226 16.7425 3.74185 16.7425 2.10463ZM2.70209 2.10463C4.33932 2.10463 13.0216 2.10463 14.6588 2.10463C14.6588 3.74185 14.6588 12.5729 14.6588 14.2102C13.0216 14.2102 4.33932 14.2102 2.70209 14.2102C2.70209 12.6226 2.70209 3.74185 2.70209 2.10463ZM28.7488 28.3994C26.8635 28.3994 4.58738 28.3994 2.70209 28.3994C2.70209 26.7622 2.70209 17.9807 2.70209 16.3435C4.58738 16.3435 26.8635 16.3435 28.7488 16.3435C28.7488 17.9807 28.7488 26.7622 28.7488 28.3994Z" fill="#828792"/>
<path fill-rule="evenodd" clip-rule="evenodd" d="M43.7176 14.1109V9.49694L41.237 9.59617L41.1378 14.1109H38.7068V9.49694H37.8137V8.00856H38.7068V0.169729H41.1378L41.237 8.00856H43.7176V0.169729H46.1983V14.1109H43.7176Z" fill="#828792"/>
<path fill-rule="evenodd" clip-rule="evenodd" d="M51.9534 14.3094C50.2665 14.3094 47.6867 13.6644 47.6867 7.16514C47.6867 0.71547 50.2665 0.169729 51.9534 0.169729C53.6402 0.169729 56.3689 0.71547 56.3689 7.16514C56.3689 13.714 53.6402 14.3094 51.9534 14.3094ZM51.9534 1.75734C51.0107 1.75734 50.2665 2.55114 50.2665 7.21475C50.2665 11.9776 51.0603 12.7218 51.9534 12.7218C52.896 12.7218 53.7394 11.928 53.7394 7.21475C53.7394 2.50153 52.896 1.75734 51.9534 1.75734Z" fill="#828792"/>
<path fill-rule="evenodd" clip-rule="evenodd" d="M64.6046 14.1605V6.76824L63.1163 9.79462H61.7271L60.3379 6.91707L60.2387 14.1605H57.8573V0.268953H59.2465L62.4217 6.71862L65.5969 0.268953H67.0853V14.1605H64.6046Z" fill="#828792"/>
<path fill-rule="evenodd" clip-rule="evenodd" d="M69.3675 14.1605V9.59617H68.6729V8.10778H69.3675V0.268953H75.4202V1.75734L71.8481 1.80695L71.7489 8.10778H74.5768V9.59617H71.7489V12.6722H75.4202V14.1605H69.3675Z" fill="#828792"/>
<path fill-rule="evenodd" clip-rule="evenodd" d="M89.3118 8.5543C89.4607 9.54656 89.2126 11.1838 88.6669 12.1264C87.3273 14.4582 85.3428 14.5575 83.7552 13.8133C83.2094 13.5652 81.1257 12.5729 80.9769 9.79462C80.9769 8.1574 81.5226 6.91707 82.8622 5.92482C81.3738 4.6845 81.3242 2.60076 82.7133 1.41005C83.5071 0.616246 84.4994 0.318568 85.5909 0.268955C85.8885 0.268955 86.6824 0.169729 87.4762 0.517019V2.15424C86.6824 1.90618 86.5335 1.70773 85.2932 1.90618C84.7475 2.05502 84.4498 2.3527 84.3009 2.89844C84.0529 3.89069 84.4498 4.93256 85.9382 5.13101L86.0374 6.6194C83.7056 6.17288 82.8622 9.94346 84.4002 11.9776C84.7971 12.4241 85.3924 12.6225 85.8885 12.4241C86.2854 12.2753 86.5831 11.8784 86.8312 11.0349C87.0793 10.39 86.98 9.79462 86.98 8.5543C86.732 8.5543 86.5831 8.45507 85.9878 8.5543C85.9878 7.85972 85.8885 7.21475 85.8885 7.21475C87.0296 6.76824 87.2281 6.96669 87.8234 6.96669C89.3118 7.06591 89.7087 7.06591 90.8498 6.71862C90.9491 7.56204 90.9491 8.20701 90.9491 8.20701C89.8576 8.5543 89.808 8.5543 89.3118 8.5543Z" fill="#828792"/>
<path fill-rule="evenodd" clip-rule="evenodd" d="M46.4464 30.4336C45.7518 30.5824 45.0572 30.8801 43.9657 30.8801C41.7827 30.8801 38.3099 30.1855 38.3099 23.6366C38.3099 17.0381 41.7331 16.7404 43.6184 16.7404C44.313 16.7404 45.2556 16.8892 45.2556 16.8892V18.3776C44.6107 18.2784 44.4122 18.2784 44.1145 18.2784C42.7254 18.2784 40.9889 19.0722 40.9889 23.6366C40.9889 28.201 42.6262 29.2428 44.1642 29.2428V26.2661C44.1642 24.8769 43.9161 24.7281 42.9238 24.7281C42.8246 24.7281 42.6758 24.6289 42.2293 24.6289V23.2397C42.2293 23.2397 42.8742 23.1405 43.2215 23.1405C45.2556 23.1405 46.5456 23.7854 46.5456 26.1669L46.4464 30.4336Z" fill="#828792"/>
<path fill-rule="evenodd" clip-rule="evenodd" d="M53.4418 30.7312L52.7472 28.2506H50.2665L49.6216 30.7312H47.4386L50.9115 16.8396H52.3007L55.7736 30.7312H53.4418ZM51.5565 22.6443L50.6138 26.663H52.4991L51.5565 22.6443Z" fill="#828792"/>
<path fill-rule="evenodd" clip-rule="evenodd" d="M61.3302 25.373C61.9752 25.8196 62.4217 26.3653 62.8682 27.0599C63.662 28.201 63.9597 29.3917 63.9597 30.7312H61.7271C61.7271 29.5901 61.4294 28.6475 60.9333 27.9529C60.5364 27.4072 60.1395 26.9607 59.7922 26.6134L59.693 30.7312H57.2619V16.79H58.8992C61.3798 16.79 64.3566 17.5838 64.3566 21.0071C64.3566 23.3389 62.5705 24.7281 61.3302 25.373ZM59.8914 18.2784V24.1823C60.586 23.7854 61.8263 22.8428 61.8263 21.0071C61.8263 19.0722 60.8837 18.3776 59.8914 18.2784Z" fill="#828792"/>
<path fill-rule="evenodd" clip-rule="evenodd" d="M67.8791 30.7808L66.3411 30.6816V16.79H67.8791C69.9628 16.79 73.6838 17.3358 73.6838 23.7854C73.6838 30.1855 69.9628 30.7808 67.8791 30.7808ZM68.5737 18.2784C68.5737 18.2784 68.8217 27.0599 68.8217 29.1436C69.7644 28.8459 71.0543 27.8041 71.0543 23.7854C71.0543 19.3699 69.5163 18.4272 68.5737 18.2784Z" fill="#828792"/>
<path fill-rule="evenodd" clip-rule="evenodd" d="M75.1722 30.7312V26.1172L74.4776 26.0676V24.6785H75.1722V16.79H81.2249V18.2288L77.6528 18.2784L77.6032 24.6785H80.3815V26.0676L77.6032 26.1172V29.2428H81.2249V30.7312H75.1722Z" fill="#828792"/>
<path fill-rule="evenodd" clip-rule="evenodd" d="M88.7661 30.632L85.2932 23.4381L85.194 30.632H82.8126V16.7404H84.2017L87.8234 24.2816V16.7404H90.2545V30.632H88.7661Z" fill="#828792"/>
</svg>
