<svg width="86" height="29" viewBox="0 0 86 29" fill="none" xmlns="http://www.w3.org/2000/svg">
<path opacity="0.7" fill-rule="evenodd" clip-rule="evenodd" d="M7.65053 7.13066C8.16921 6.95777 8.77434 6.61198 9.37946 6.0933C9.94137 5.70429 10.46 5.31528 11.0652 4.9695C11.4974 4.75338 11.9296 4.66693 12.4483 4.66693C12.8806 4.66693 13.2696 4.83983 13.5721 5.22884C13.8315 5.57462 13.9611 5.96363 13.9611 6.48231C13.9611 7.13066 13.7018 7.5629 13.1831 7.73579C12.7077 7.90868 11.9729 8.03835 10.9787 8.1248H9.94137C9.29302 8.1248 8.64467 8.21125 8.12599 8.42736C8.42855 8.81637 8.94723 9.24861 9.68203 9.81051C10.3736 10.286 10.9355 10.7182 11.411 11.1072C11.7567 11.453 11.9729 11.9285 12.0593 12.4471C12.0593 12.8794 11.8864 13.3116 11.4974 13.7006C11.1948 14.0032 10.7626 14.1761 10.2439 14.2193C9.72525 14.2193 9.29302 13.96 8.94723 13.398C8.64467 12.9226 8.29888 12.1446 7.90987 11.1072C7.56408 10.1131 7.30474 9.50795 7.08863 9.24861C6.87251 9.50795 6.56995 10.1563 6.22416 11.1504C5.96482 12.0149 5.61903 12.7929 5.23002 13.4413C4.92746 13.9167 4.452 14.2193 3.84688 14.2193C3.41464 14.2193 2.98241 14.0464 2.63662 13.7006C2.16117 13.398 1.98827 13.009 1.98827 12.62C1.98827 12.1013 2.16117 11.6691 2.5934 11.3233C2.89596 10.9775 3.50109 10.5021 4.32233 9.85373C5.1868 9.16216 5.70548 8.6867 5.87837 8.42736C5.31647 8.25447 4.71134 8.21125 4.06299 8.21125H3.02563C2.0315 8.1248 1.2967 7.99513 0.821243 7.86546C0.345787 7.69257 0.0432233 7.30356 0 6.69843C0 6.17975 0.12967 5.70429 0.38901 5.31528C0.64835 4.92627 1.03736 4.71016 1.51282 4.71016C2.07472 4.71016 2.50695 4.7966 2.76629 4.9695C2.93919 5.05594 3.45787 5.44495 4.40878 6.0933C5.23002 6.69843 5.83515 7.04422 6.31061 7.17389C6.31061 6.65521 6.13771 5.87719 5.83515 4.83983C5.53259 3.84569 5.35969 3.02445 5.35969 2.50577C5.35969 2.03031 5.48936 1.6413 5.79193 1.29551C6.00804 0.992951 6.39705 0.863281 6.91573 0.863281C7.43441 0.863281 7.82342 0.992951 8.12599 1.29551C8.42855 1.55485 8.60144 1.94386 8.60144 2.46254C8.60144 3.06767 8.42855 3.84569 8.12599 4.83983C7.7802 5.83396 7.65053 6.61198 7.65053 7.13066Z" fill="#828792"/>
<path fill-rule="evenodd" clip-rule="evenodd" d="M76.7229 13.7871C76.7229 14.6084 76.9391 15.2567 77.4145 15.7322C77.8467 16.2076 78.4519 16.467 79.2299 16.467C80.0079 16.467 80.5698 16.2076 81.002 15.7322C81.4343 15.2567 81.6072 14.6084 81.6072 13.7439C81.6072 13.0523 81.3911 12.4472 80.9588 11.9717C80.5266 11.4963 79.9647 11.2369 79.2299 11.2369C78.4951 11.2369 77.89 11.4531 77.4145 11.9285C76.9391 12.4472 76.7229 13.0523 76.7229 13.7871ZM73.5244 26.2354C72.7464 25.5871 72.4871 24.5929 72.6167 23.7285H75.5559C75.9881 25.1116 77.8035 25.3277 79.3163 25.2845C80.224 25.2413 81.002 25.1549 81.6072 24.8523C82.2123 24.5929 82.5149 24.2039 82.5149 23.7285C82.5149 22.9072 81.8665 22.5182 80.5266 22.5182C80.1808 22.5182 79.6189 22.5615 78.9273 22.6479C78.2358 22.7343 77.6739 22.7776 77.3281 22.7776C75.1237 22.7776 73.9999 21.9995 73.9999 20.4003C73.9999 19.9248 74.1728 19.4926 74.5618 19.0604C74.9508 18.6281 75.3398 18.2823 75.8585 18.1094C74.3024 17.0721 73.5244 15.6457 73.5244 13.7871C73.5244 12.3175 74.0863 11.1073 75.1237 10.1564C76.2043 9.20544 77.5442 8.72998 79.1002 8.72998C80.3105 8.72998 81.3478 8.9461 82.2123 9.42155L83.4658 7.95196C85.2379 7.95196 85.454 8.25453 85.6702 9.98346L84.1574 11.1073C84.676 11.9285 84.9354 12.8794 84.9354 13.96C84.9354 15.516 84.4599 16.7695 83.509 17.7204C82.5581 18.6714 81.3478 19.1468 79.8782 19.1468C79.6621 19.1468 79.3596 19.1036 78.9705 19.0604L78.4519 18.9739C78.4086 18.9739 78.1493 19.0604 77.7603 19.2333C77.3713 19.4061 77.1552 19.6223 77.1552 19.7952C77.1552 20.1409 77.4577 20.3138 78.0629 20.3138C78.3222 20.3138 78.7544 20.2706 79.4028 20.1409C80.0079 20.0113 80.5698 19.9681 81.002 19.9681C84.1141 19.9681 85.6702 21.2215 85.6702 23.7285C85.6702 25.1116 85.065 26.1922 83.8116 26.9702C82.5581 27.7483 81.0453 28.1373 79.3163 28.1373C77.1119 28.094 75.1237 27.5754 73.5244 26.2354Z" fill="#828792"/>
<path fill-rule="evenodd" clip-rule="evenodd" d="M68.6834 14.7812C68.6834 13.6142 68.4673 12.7498 67.9918 12.2311C67.5596 11.7124 66.8248 11.4098 65.7874 11.4098C65.312 11.4098 64.8365 11.5395 64.2746 11.7988C63.7559 12.0582 63.3237 12.404 63.0211 12.793V22.7343H59.8226V11.3666C59.8226 10.7183 59.6497 10.1131 59.5633 9.508L62.1567 8.98932L62.7618 10.286C63.6263 9.24866 64.923 8.72998 66.6087 8.72998C68.2512 8.72998 69.5479 9.20544 70.4988 10.1996C71.4497 11.1937 71.9251 12.5336 71.9251 14.3058V22.7343H68.6834V14.7812Z" fill="#828792"/>
<path fill-rule="evenodd" clip-rule="evenodd" d="M56.6241 9.03255V22.6911H53.0366V9.63767L56.6241 9.03255Z" fill="#828792"/>
<path fill-rule="evenodd" clip-rule="evenodd" d="M47.6336 22.6911H43.6139L39.5077 9.46478L43.1816 9.03255L45.2996 17.3314C45.4292 17.9798 45.5589 18.4552 45.6021 18.8442C45.6454 18.6713 45.6886 18.412 45.775 18.1094C45.8615 17.7637 45.9047 17.5043 45.9047 17.3747L47.9362 9.07577L51.567 9.42155L47.6336 22.6911Z" fill="#828792"/>
<path fill-rule="evenodd" clip-rule="evenodd" d="M37.9084 9.03255V22.6911H34.2776V9.55123L37.9084 9.03255Z" fill="#828792"/>
<path fill-rule="evenodd" clip-rule="evenodd" d="M24.7685 19.4926H32.03L31.5113 22.6911H20.9648V3.67285H24.7685V19.4926Z" fill="#828792"/>
<path fill-rule="evenodd" clip-rule="evenodd" d="M36.093 4.19153C37.0871 4.19153 37.9084 5.01277 37.9084 6.00691C37.9084 7.00105 37.0871 7.82229 36.093 7.82229C35.0989 7.82229 34.2776 7.00105 34.2776 6.00691C34.3209 5.01277 35.0989 4.19153 36.093 4.19153Z" fill="#828792"/>
<path fill-rule="evenodd" clip-rule="evenodd" d="M54.8087 4.19153C55.8028 4.19153 56.6241 5.01277 56.6241 6.00691C56.6241 7.00105 55.8028 7.82229 54.8087 7.82229C53.8146 7.82229 52.9933 7.00105 52.9933 6.00691C53.0366 5.01277 53.8578 4.19153 54.8087 4.19153Z" fill="#828792"/>
</svg>
