<svg width="132" height="28" viewBox="0 0 132 28" fill="none" xmlns="http://www.w3.org/2000/svg">
<path d="M8.01109 19.5502C7.95109 19.5502 7.90109 19.5502 7.86109 19.5502L5.82109 23.7502L13.6211 23.7802V27.2302L0.121094 27.2602L4.29109 18.6202C3.37109 18.0802 2.66109 17.3702 2.16109 16.4902C1.66109 15.5902 1.41109 14.6002 1.41109 13.5202C1.41109 11.8602 2.02109 10.4402 3.24109 9.26019C4.46109 8.0802 6.05109 7.4902 8.01109 7.4902C8.43109 7.4902 8.84109 7.5202 9.24109 7.5802L11.2211 3.05019L15.0611 4.49019L12.5711 9.0802C13.9311 10.2402 14.6111 11.7202 14.6111 13.5202C14.6111 15.2402 14.0011 16.6802 12.7811 17.8402C11.5811 18.9802 9.99109 19.5502 8.01109 19.5502ZM8.01109 10.9102C7.47109 10.9102 6.99109 11.0402 6.57109 11.3002C6.15109 11.5402 5.82109 11.8602 5.58109 12.2602C5.36109 12.6602 5.25109 13.1002 5.25109 13.5802C5.25109 14.3602 5.50109 15.0102 6.00109 15.5302C6.52109 16.0502 7.19109 16.3102 8.01109 16.3102C8.83109 16.3102 9.49109 16.0502 9.99109 15.5302C10.5111 15.0102 10.7711 14.3602 10.7711 13.5802C10.7711 13.1202 10.6611 12.6902 10.4411 12.2902C10.2211 11.8902 9.89109 11.5602 9.45109 11.3002C9.03109 11.0402 8.55109 10.9102 8.01109 10.9102Z" fill="white"/>
<path d="M20.4044 5.30019C20.0444 5.30019 19.7044 5.2502 19.3844 5.1502C19.0844 5.0302 18.8144 4.8802 18.5744 4.7002C18.3544 4.5202 18.1744 4.30019 18.0344 4.04019C17.9144 3.76019 17.8544 3.46019 17.8544 3.14019C17.8544 2.5002 18.0944 1.9802 18.5744 1.58019C19.0744 1.16019 19.6844 0.950195 20.4044 0.950195C21.1044 0.950195 21.6944 1.16019 22.1744 1.58019C22.6744 1.9802 22.9244 2.5002 22.9244 3.14019C22.9244 3.78019 22.6744 4.30019 22.1744 4.7002C21.6944 5.1002 21.1044 5.30019 20.4044 5.30019ZM18.3944 23.0002V7.8802H22.4444V23.0002H18.3944Z" fill="white"/>
<path d="M32.6791 19.5502C32.6191 19.5502 32.5691 19.5502 32.5291 19.5502L30.4891 23.7502L38.2891 23.7802V27.2302L24.7891 27.2602L28.9591 18.6202C28.0391 18.0802 27.3291 17.3702 26.8291 16.4902C26.3291 15.5902 26.0791 14.6002 26.0791 13.5202C26.0791 11.8602 26.6891 10.4402 27.9091 9.26019C29.1291 8.0802 30.7191 7.4902 32.6791 7.4902C33.0991 7.4902 33.5091 7.5202 33.9091 7.5802L35.8891 3.05019L39.7291 4.49019L37.2391 9.0802C38.5991 10.2402 39.2791 11.7202 39.2791 13.5202C39.2791 15.2402 38.6691 16.6802 37.4491 17.8402C36.2491 18.9802 34.6591 19.5502 32.6791 19.5502ZM32.6791 10.9102C32.1391 10.9102 31.6591 11.0402 31.2391 11.3002C30.8191 11.5402 30.4891 11.8602 30.2491 12.2602C30.0291 12.6602 29.9191 13.1002 29.9191 13.5802C29.9191 14.3602 30.1691 15.0102 30.6691 15.5302C31.1891 16.0502 31.8591 16.3102 32.6791 16.3102C33.4991 16.3102 34.1591 16.0502 34.6591 15.5302C35.1791 15.0102 35.4391 14.3602 35.4391 13.5802C35.4391 13.1202 35.3291 12.6902 35.1091 12.2902C34.8891 11.8902 34.5591 11.5602 34.1191 11.3002C33.6991 11.0402 33.2191 10.9102 32.6791 10.9102Z" fill="white"/>
<path d="M61.0038 18.7402C61.0038 20.0402 60.4838 21.1102 59.4438 21.9502C58.4038 22.7902 57.0838 23.2202 55.4838 23.2402C53.2038 23.2802 51.1038 22.5302 49.1838 20.9902L51.4638 18.4402C52.0038 18.9202 52.6038 19.3102 53.2638 19.6102C53.9438 19.9102 54.5738 20.0602 55.1538 20.0602C55.6938 20.0402 56.1338 19.9102 56.4738 19.6702C56.8338 19.4102 57.0138 19.0802 57.0138 18.6802C56.9938 18.2202 56.8338 17.8702 56.5338 17.6302C56.2538 17.3902 55.7338 17.1802 54.9738 17.0002C53.1938 16.6202 51.8738 16.0402 51.0138 15.2602C50.1538 14.4802 49.7238 13.4602 49.7238 12.2002C49.7238 10.8802 50.2238 9.80019 51.2238 8.96019C52.2438 8.10019 53.5438 7.65019 55.1238 7.6102C56.1438 7.5902 57.1438 7.7902 58.1238 8.21019C59.1238 8.61019 59.9538 9.1502 60.6138 9.8302L58.3938 12.0202C57.5138 11.2002 56.5438 10.7902 55.4838 10.7902C54.9238 10.8102 54.4638 10.9402 54.1038 11.1802C53.7638 11.4202 53.5938 11.7402 53.5938 12.1402C53.5938 12.4202 53.6638 12.6602 53.8038 12.8602C53.9438 13.0402 54.1638 13.2002 54.4638 13.3402C54.7638 13.4802 55.1637 13.6002 55.6637 13.7002C59.2037 14.4202 60.9838 16.1002 61.0038 18.7402Z" fill="white"/>
<path d="M75.2254 23.0002V15.6202C75.2254 12.8202 74.1354 11.4202 71.9554 11.4202C71.1554 11.4202 70.4654 11.5802 69.8854 11.9002C69.3254 12.2202 68.8954 12.6702 68.5954 13.2502C68.3154 13.8102 68.1754 14.4702 68.1754 15.2302V23.0002H64.1254V2.54019H68.1754V10.3102C68.6954 9.55019 69.4054 8.9302 70.3054 8.4502C71.2054 7.95019 72.1654 7.70019 73.1854 7.70019C77.3454 7.70019 79.4254 10.3002 79.4254 15.5002V23.0002H75.2254Z" fill="white"/>
<path d="M90.2057 23.2102C88.0457 23.2102 86.2657 22.4802 84.8657 21.0202C83.4657 19.5402 82.7657 17.6702 82.7657 15.4102C82.7657 13.1502 83.4657 11.2902 84.8657 9.8302C86.2657 8.3502 88.0457 7.6102 90.2057 7.6102C91.3457 7.6102 92.3957 7.85019 93.3557 8.33019C94.3357 8.81019 95.1257 9.47019 95.7257 10.3102L95.6957 7.82019H99.7457V23.0002H95.6957L95.7257 20.5102C95.1257 21.3502 94.3357 22.0102 93.3557 22.4902C92.3757 22.9702 91.3257 23.2102 90.2057 23.2102ZM91.4357 19.7002C92.7157 19.7002 93.7757 19.2902 94.6157 18.4702C95.4757 17.6302 95.9057 16.5802 95.9057 15.3202C95.9057 14.5202 95.7057 13.8002 95.3057 13.1602C94.9257 12.5002 94.3857 11.9902 93.6857 11.6302C93.0057 11.2502 92.2557 11.0602 91.4357 11.0602C90.1357 11.0602 89.0557 11.4602 88.1957 12.2602C87.3557 13.0602 86.9357 14.0802 86.9357 15.3202C86.9357 16.5802 87.3557 17.6302 88.1957 18.4702C89.0557 19.2902 90.1357 19.7002 91.4357 19.7002Z" fill="white"/>
<path d="M113.594 11.3602C111.754 11.2002 110.394 11.5702 109.514 12.4702C108.654 13.3702 108.224 14.6302 108.224 16.2502V23.0002H104.174V7.8802H108.224L108.134 10.3702C108.574 9.45019 109.254 8.7402 110.174 8.2402C111.094 7.7202 112.234 7.5302 113.594 7.67019V11.3602Z" fill="white"/>
<path d="M123.186 23.2702C120.666 23.2702 118.646 22.5402 117.126 21.0802C115.606 19.6002 114.846 17.7102 114.846 15.4102C114.846 13.1502 115.616 11.2902 117.156 9.8302C118.696 8.3502 120.656 7.6102 123.036 7.6102C125.696 7.6102 127.806 8.4702 129.366 10.1902C130.926 11.9102 131.556 14.1002 131.256 16.7602H119.046C119.146 17.7002 119.586 18.4802 120.366 19.1002C121.146 19.7002 122.086 20.0002 123.186 20.0002C124.866 20.0002 126.256 19.4102 127.356 18.2302L130.476 20.0602C129.696 21.0602 128.676 21.8502 127.416 22.4302C126.176 22.9902 124.766 23.2702 123.186 23.2702ZM119.046 13.9402H127.266C127.126 12.9402 126.676 12.1502 125.916 11.5702C125.176 10.9702 124.246 10.6702 123.126 10.6702C122.046 10.6702 121.126 10.9802 120.366 11.6002C119.606 12.2002 119.166 12.9802 119.046 13.9402Z" fill="white"/>
</svg>
