<svg width="87" height="35" viewBox="0 0 87 35" fill="none" xmlns="http://www.w3.org/2000/svg">
<path fill-rule="evenodd" clip-rule="evenodd" d="M61.4757 23.7342H64.9098C64.9098 21.8264 65.1006 19.06 66.6269 19.06C68.0577 19.06 68.0577 22.4941 68.0577 23.7342C68.0577 24.9743 68.2485 29.2193 66.5315 29.2193C64.719 29.2193 64.9098 24.8789 64.9098 23.7342H61.4757C61.4757 25.4513 61.6665 27.3114 61.9049 27.8838C62.525 29.1239 64.0513 30.4117 65.8637 31.0317C67.1992 31.461 70.4426 29.2193 71.0626 27.7884C71.5873 26.7868 71.6827 21.2063 70.9672 20.0616C70.2518 18.8692 68.9163 17.2952 67.1038 16.9137C65.8637 16.6275 63.0497 18.1538 62.0003 19.68C61.5711 20.3955 61.4757 22.1125 61.4757 23.7342Z" fill="#828792"/>
<path fill-rule="evenodd" clip-rule="evenodd" d="M46.8329 14.0996C44.4958 14.0996 41.7772 12.5733 41.0617 11.1424C41.0617 11.1424 42.7788 11.1424 44.2097 9.95002C45.8313 8.70992 45.3067 6.89746 45.4498 7.23133C46.5468 9.56845 47.4053 11.4763 47.6915 12.0963C48.4546 13.6226 47.9777 14.0042 46.8329 14.0996Z" fill="#828792"/>
<path fill-rule="evenodd" clip-rule="evenodd" d="M47.9777 0.601562C51.1256 0.88774 53.6535 4.03569 53.6535 7.32673C53.6535 8.56683 53.2719 9.75923 52.6519 10.7608L47.9777 0.601562Z" fill="#828792"/>
<path fill-rule="evenodd" clip-rule="evenodd" d="M44.6866 0.88774C45.1159 0.696955 45.4021 0.696955 45.879 0.696955C45.879 0.696955 50.3625 10.9516 50.8394 11.5717C51.4595 12.6687 50.5533 13.1934 50.4579 13.2887C50.2671 13.2887 45.0205 1.60318 44.6866 0.88774Z" fill="#828792"/>
<path fill-rule="evenodd" clip-rule="evenodd" d="M40.0601 8.70991C39.9647 8.51913 39.9647 7.89908 39.9647 7.37442C39.9647 5.03731 41.1571 2.98637 42.9219 1.79397C42.9219 1.79397 44.2574 4.65574 44.6389 5.75275C45.259 7.37442 44.6389 9.28227 42.6834 9.32996C40.7278 9.52075 40.0601 8.70991 40.0601 8.70991Z" fill="#828792"/>
<path fill-rule="evenodd" clip-rule="evenodd" d="M59.854 28.9331C59.854 26.8822 59.9494 23.1619 59.9494 20.3955C59.9494 19.9662 59.9494 18.8692 59.9494 18.4876C59.854 18.2015 59.5678 17.6768 59.4247 17.486H55.7998C56.2291 18.0107 56.2291 18.2015 56.3245 19.0123V27.7884C56.3245 27.7884 56.3245 29.4101 56.3245 29.6008C56.3245 30.3163 57.0399 30.8409 57.1353 30.8409C57.1353 30.8409 58.4708 30.8409 59.5678 30.8409C59.854 30.8409 60.1879 30.8409 60.6648 30.8409C60.8556 30.8409 60.4741 30.5548 60.2833 30.2209C60.0448 29.6485 59.854 29.4101 59.854 28.9331Z" fill="#828792"/>
<path fill-rule="evenodd" clip-rule="evenodd" d="M28.3745 32.7011L19.5507 13.2887L15.4966 15.3397L18.9307 22.7326L17.4998 25.6898L11.4901 12.8118L7.14972 15.1012L10.8223 22.9234C10.8223 22.9234 8.676 26.4529 7.67438 27.7884C6.86355 28.8854 5.76653 29.6008 4.71722 29.6008C3.90638 29.6008 3.38172 29.4101 3.38172 29.4101L0.949219 33.2735C0.949219 33.2735 1.47388 34.0843 3.19094 34.3705C4.38334 34.5612 6.05271 33.7504 6.95894 32.4626C8.91448 29.3147 11.4424 24.2589 11.5378 24.4497C12.6348 26.9776 15.115 32.7488 15.115 32.7488H20.6L18.2152 27.3114L19.5507 24.2589L23.4141 32.7011H28.3745Z" fill="#828792"/>
<path fill-rule="evenodd" clip-rule="evenodd" d="M76.8815 28.9331C76.8815 26.8822 76.8815 22.9234 76.8815 20.1093C76.8815 19.68 76.8815 18.7738 76.8815 18.3922C76.8815 18.2968 77.597 18.3922 78.3124 18.3922C78.5032 18.0107 78.694 17.5814 78.8371 17.1998C78.4078 17.1998 77.7401 17.1998 76.8815 17.1998C76.8815 16.389 76.8815 15.6736 76.8815 15.0535C76.8815 13.8611 76.8815 13.098 76.8815 12.8118L73.2089 14.3381C73.2089 14.3381 73.2089 16.389 73.2089 17.1998C72.8274 17.1998 72.1119 17.1998 71.7781 17.1998C71.4919 17.6291 71.3965 17.8199 71.158 18.3922C71.6827 18.3922 72.7797 18.2968 73.2089 18.3922C73.2089 18.7738 73.2089 18.6784 73.2089 18.8215V27.4545C73.2089 27.4545 73.2089 29.0762 73.2089 29.5055C73.2089 30.2209 73.829 30.7456 74.0198 30.7456C74.0198 30.7456 75.2122 30.7456 76.2615 30.7456C76.4523 30.7456 77.3585 30.7456 77.6924 30.7456C77.6924 30.7456 77.5016 30.4594 77.3108 30.1255C77.0723 29.6485 76.8815 29.4101 76.8815 28.9331Z" fill="#828792"/>
<path fill-rule="evenodd" clip-rule="evenodd" d="M84.7991 28.9331C84.7991 26.8822 84.7991 22.9234 84.7991 20.1093C84.7991 19.68 84.7991 18.7738 84.7991 18.3922C84.7991 18.2968 85.5146 18.3922 86.23 18.3922C86.4208 18.0107 86.6116 17.5814 86.7547 17.1998C86.3254 17.1998 85.6576 17.1998 84.7991 17.1998C84.7991 16.389 84.7991 15.6736 84.7991 15.0535C84.7991 13.8611 84.7991 13.098 84.7991 12.8118L81.1265 14.3381C81.1265 14.3381 81.1265 16.389 81.1265 17.1998C80.7449 17.1998 80.0295 17.1998 79.6956 17.1998C79.4094 17.6291 79.314 17.8199 79.0756 18.3922C79.6002 18.3922 80.6972 18.2968 81.1265 18.3922C81.1265 18.7738 81.1265 18.6784 81.1265 18.8215V27.4545C81.1265 27.4545 81.1265 29.0762 81.1265 29.5055C81.1265 30.2209 81.7466 30.7456 81.9373 30.7456C81.9373 30.7456 83.1297 30.7456 84.1791 30.7456C84.3699 30.7456 85.2761 30.7456 85.6099 30.7456C85.7053 30.7456 85.4192 30.4594 85.2284 30.1255C84.9422 29.6485 84.7991 29.4101 84.7991 28.9331Z" fill="#828792"/>
<path fill-rule="evenodd" clip-rule="evenodd" d="M51.221 28.9331C51.221 26.8822 51.221 23.1619 51.221 20.3955C51.221 19.9662 53.0335 19.5846 53.6535 20.6817C54.7505 19.2508 54.8936 18.9646 55.2752 18.4399C55.2752 18.4399 55.0844 18.0107 54.6551 17.7245C54.1305 17.5337 52.7473 17.5337 52.2226 17.7245C51.7934 17.8199 51.221 18.4399 51.221 18.4399C51.0302 18.7261 51.221 17.8199 50.7917 17.5337H47.1191C47.5484 18.0584 47.5484 18.2492 47.6438 19.06V27.7884C47.6438 27.7884 47.6438 29.4101 47.6438 29.6008C47.7392 30.4117 48.2638 30.7933 48.4546 30.8409C48.4546 30.8409 49.7901 30.8409 50.8871 30.8409C51.1733 30.9363 51.6026 30.8409 51.9841 30.8409C51.9841 30.8409 51.6026 30.3163 51.5549 30.1255C51.3164 29.7439 51.1256 29.1239 51.221 28.9331Z" fill="#828792"/>
<path fill-rule="evenodd" clip-rule="evenodd" d="M42.3495 28.9331C42.3495 26.7868 42.3495 23.1619 42.3495 20.3955C42.3495 19.9662 44.162 19.4893 44.782 20.6817C45.9744 19.2508 46.0221 18.9646 46.4037 18.4399C46.4037 18.4399 46.2129 17.9153 45.7836 17.7245C45.259 17.4383 43.8758 17.4383 43.3511 17.7245C42.9696 17.8199 42.3495 18.3445 42.3495 18.3445C42.1587 18.7261 42.3495 17.8199 41.9202 17.5337H38.2476C38.6769 18.0584 38.6769 18.2492 38.8677 19.06V27.7884C38.8677 27.7884 38.7723 29.4101 38.8677 29.6008C38.8677 30.3163 39.3923 30.7933 39.5831 30.8409C39.5831 30.8409 40.9186 30.8409 42.0156 30.8409C42.3018 30.8409 42.7311 30.8409 43.1126 30.8409C43.1126 30.8409 42.7311 30.2209 42.6834 30.1255C42.3972 29.7439 42.2541 29.0285 42.3495 28.9331Z" fill="#828792"/>
<path fill-rule="evenodd" clip-rule="evenodd" d="M26.6575 26.2144C26.6575 25.6898 26.7529 25.1174 27.039 24.4974C27.8499 22.5895 29.4715 22.0648 31.3794 21.3494C32.381 20.9678 33.6211 20.5386 33.6211 19.9185C33.6211 18.0107 30.3778 19.0123 29.2331 20.2047C28.9469 20.4909 27.8976 21.5402 27.8976 21.5402L28.0883 19.9185C28.2791 18.1061 28.9946 17.7722 29.8054 17.486C30.9024 17.1044 33.478 16.9614 33.478 16.9614C36.0059 16.9614 37.1506 18.583 37.1506 20.3955V28.9331C37.1506 28.9331 37.1506 29.5531 37.4368 30.0301C37.5322 30.3163 37.9615 30.8409 37.9615 30.8409C37.0552 30.8409 37.1506 30.8409 36.626 30.8409C35.7197 30.8409 35.3859 30.9363 34.8135 30.8409C34.1935 30.7456 33.5734 30.2209 33.5734 28.9331C33.5734 28.8377 32.858 29.5531 32.1425 29.9347C31.761 30.2209 30.9024 30.7456 30.2347 30.9363C29.5669 31.0794 28.136 30.1732 27.4683 29.1239C26.8482 28.1223 26.5621 27.216 26.6575 26.2144ZM29.9962 26.2144C29.9962 27.216 29.8054 28.4561 31.1886 28.4561C32.381 28.4561 33.4303 27.6453 33.4303 26.5483C33.5257 25.3082 33.4303 24.6404 33.4303 23.6865C33.4303 23.1619 33.4303 22.4941 32.8103 22.4941C32.1902 22.4941 31.5702 22.9234 31.284 23.3049C30.807 23.7342 29.9962 24.6881 29.9962 26.2144Z" fill="#828792"/>
</svg>
